; Drill file
; Format: 3.2 (000.00)
M48
METRIC
T01C0.4
T02C0.6
%
G05
G90
T01
X00127Y05207
X00381Y05207
X00381Y05461
X00635Y05461
X00889Y05461
X01143Y05461
X01143Y05207
X00889Y05207
X00635Y05207
X00127Y05461
X00127Y06223
X00381Y06223
X00635Y06223
X00889Y06223
X01143Y06223
X01524Y06223
X01143Y06731
X01524Y05461
X01524Y05207
X02794Y06731
X04445Y06731
X05334Y06350
X05588Y06350
X05842Y06350
X06096Y06350
X06096Y06731
X06096Y05461
X05842Y05461
X05588Y05461
X05334Y05461
X05334Y05207
X05588Y05207
X05842Y05207
X06096Y05207
X05969Y08763
X05715Y08763
X05461Y08763
X05461Y09652
X05715Y09652
X05969Y09652
X05969Y09906
X06223Y09906
X06350Y09652
X05715Y09906
X05461Y09906
X06350Y08763
X01016Y08763
X00635Y08763
X00381Y08763
X00381Y09652
X00381Y09906
X00635Y09906
X00635Y09652
X01016Y09652
X01016Y09906
T02
X00127Y06477
X00127Y06731
X00127Y06985
X00127Y07239
X00127Y07493
X00127Y07747
X00127Y08001
X00127Y08255
X00127Y08509
X01397Y08509
X01397Y08255
X01397Y08001
X01397Y07747
X01397Y07493
X01397Y07239
X01397Y06985
X01397Y06731
X01397Y06477
X01778Y06477
X01778Y06731
X01778Y06985
X01778Y07239
X01778Y07493
X01778Y07747
X01778Y08001
X01778Y08255
X01778Y08509
X03048Y08509
X03048Y08255
X03048Y08001
X03048Y07747
X03048Y07493
X03048Y07239
X03048Y06985
X03048Y06731
X03048Y06477
X03429Y06477
X03429Y06731
X03429Y06985
X03429Y07239
X03429Y07493
X03429Y07747
X03429Y08001
X03429Y08255
X03429Y08509
X04699Y08509
X04699Y08255
X04699Y08001
X04699Y07747
X04699Y07493
X04699Y07239
X04699Y06985
X04699Y06731
X04699Y06477
X05080Y06477
X05080Y06731
X05080Y06985
X05080Y07239
X05080Y07493
X05080Y07747
X05080Y08001
X05080Y08255
X05080Y08509
X06350Y08509
X06350Y08255
X06350Y08001
X06350Y07747
X06350Y07493
X06350Y07239
X06350Y06985
X06350Y06731
X06350Y06477
M30
