%FSLAX34Y34*%
%MOMM*%
%LNCOPPER_BOTTOM*%
G71*
G01*
%ADD10C, 1.800*%
%ADD11C, 0.300*%
%ADD12C, 1.100*%
%LPD*%
X139700Y850900D02*
G54D10*
D03*
X139700Y825500D02*
G54D10*
D03*
X139700Y800100D02*
G54D10*
D03*
X139700Y774700D02*
G54D10*
D03*
X139700Y749300D02*
G54D10*
D03*
X139700Y723900D02*
G54D10*
D03*
X139700Y698500D02*
G54D10*
D03*
X139700Y673100D02*
G54D10*
D03*
X139700Y647700D02*
G54D10*
D03*
X12700Y647700D02*
G54D10*
D03*
X12700Y673100D02*
G54D10*
D03*
X12700Y698500D02*
G54D10*
D03*
X12700Y723900D02*
G54D10*
D03*
X12700Y749300D02*
G54D10*
D03*
X12700Y774700D02*
G54D10*
D03*
X12700Y800100D02*
G54D10*
D03*
X12700Y825500D02*
G54D10*
D03*
X12700Y850900D02*
G54D10*
D03*
X304800Y850900D02*
G54D10*
D03*
X304800Y825500D02*
G54D10*
D03*
X304800Y800100D02*
G54D10*
D03*
X304800Y774700D02*
G54D10*
D03*
X304800Y749300D02*
G54D10*
D03*
X304800Y723900D02*
G54D10*
D03*
X304800Y698500D02*
G54D10*
D03*
X304800Y673100D02*
G54D10*
D03*
X304800Y647700D02*
G54D10*
D03*
X177800Y647700D02*
G54D10*
D03*
X177800Y673100D02*
G54D10*
D03*
X177800Y698500D02*
G54D10*
D03*
X177800Y723900D02*
G54D10*
D03*
X177800Y749300D02*
G54D10*
D03*
X177800Y774700D02*
G54D10*
D03*
X177800Y800100D02*
G54D10*
D03*
X177800Y825500D02*
G54D10*
D03*
X177800Y850900D02*
G54D10*
D03*
X469900Y850900D02*
G54D10*
D03*
X469900Y825500D02*
G54D10*
D03*
X469900Y800100D02*
G54D10*
D03*
X469900Y774700D02*
G54D10*
D03*
X469900Y749300D02*
G54D10*
D03*
X469900Y723900D02*
G54D10*
D03*
X469900Y698500D02*
G54D10*
D03*
X469900Y673100D02*
G54D10*
D03*
X469900Y647700D02*
G54D10*
D03*
X342900Y647700D02*
G54D10*
D03*
X342900Y673100D02*
G54D10*
D03*
X342900Y698500D02*
G54D10*
D03*
X342900Y723900D02*
G54D10*
D03*
X342900Y749300D02*
G54D10*
D03*
X342900Y774700D02*
G54D10*
D03*
X342900Y800100D02*
G54D10*
D03*
X342900Y825500D02*
G54D10*
D03*
X342900Y850900D02*
G54D10*
D03*
X635000Y850900D02*
G54D10*
D03*
X635000Y825500D02*
G54D10*
D03*
X635000Y800100D02*
G54D10*
D03*
X635000Y774700D02*
G54D10*
D03*
X635000Y749300D02*
G54D10*
D03*
X635000Y723900D02*
G54D10*
D03*
X635000Y698500D02*
G54D10*
D03*
X635000Y673100D02*
G54D10*
D03*
X635000Y647700D02*
G54D10*
D03*
X508000Y647700D02*
G54D10*
D03*
X508000Y673100D02*
G54D10*
D03*
X508000Y698500D02*
G54D10*
D03*
X508000Y723900D02*
G54D10*
D03*
X508000Y749300D02*
G54D10*
D03*
X508000Y774700D02*
G54D10*
D03*
X508000Y800100D02*
G54D10*
D03*
X508000Y825500D02*
G54D10*
D03*
X508000Y850900D02*
G54D10*
D03*
G54D11*
X139700Y850900D02*
X152400Y863600D01*
X292100Y863600D01*
X304800Y850900D01*
X317500Y863600D01*
X457200Y863600D01*
X469900Y850900D01*
X482600Y863600D01*
X622300Y863600D01*
X635000Y850900D01*
G54D11*
X635000Y825500D02*
X622300Y838200D01*
X482600Y838200D01*
X469900Y825500D01*
X457200Y838200D01*
X317500Y838200D01*
X304800Y825500D01*
X292100Y838200D01*
X152400Y838200D01*
X139700Y825500D01*
G54D11*
X139700Y800100D02*
X152400Y812800D01*
X292100Y812800D01*
X304800Y800100D01*
X317500Y812800D01*
X457200Y812800D01*
X469900Y800100D01*
X482600Y812800D01*
X622300Y812800D01*
X635000Y800100D01*
G54D11*
X635000Y774700D02*
X622300Y787400D01*
X482600Y787400D01*
X469900Y774700D01*
X457200Y787400D01*
X317500Y787400D01*
X304800Y774700D01*
X292100Y787400D01*
X152400Y787400D01*
X139700Y774700D01*
G54D11*
X139700Y749300D02*
X152400Y762000D01*
X292100Y762000D01*
X304800Y749300D01*
X317500Y762000D01*
X457200Y762000D01*
X469900Y749300D01*
X482600Y762000D01*
X622300Y762000D01*
X635000Y749300D01*
G54D11*
X139700Y723900D02*
X152400Y736600D01*
X292100Y736600D01*
X304800Y723900D01*
X317500Y736600D01*
X457200Y736600D01*
X469900Y723900D01*
X482600Y736600D01*
X622300Y736600D01*
X635000Y723900D01*
G54D11*
X635000Y698500D02*
X622300Y711200D01*
X482600Y711200D01*
X469900Y698500D01*
X457200Y711200D01*
X317500Y711200D01*
X304800Y698500D01*
X292100Y711200D01*
X152400Y711200D01*
X139700Y698500D01*
G54D11*
X139700Y647700D02*
X152400Y660400D01*
X292100Y660400D01*
X304800Y647700D01*
X317500Y660400D01*
X457200Y660400D01*
X469900Y647700D01*
X482600Y660400D01*
X622300Y660400D01*
X635000Y647700D01*
X546100Y876300D02*
G54D12*
D03*
X571500Y876300D02*
G54D12*
D03*
X596900Y876300D02*
G54D12*
D03*
X635000Y876300D02*
G54D12*
D03*
X12700Y546100D02*
G54D12*
D03*
X38100Y546100D02*
G54D12*
D03*
X63500Y546100D02*
G54D12*
D03*
X88900Y546100D02*
G54D12*
D03*
X114300Y546100D02*
G54D12*
D03*
X152400Y546100D02*
G54D12*
D03*
X152400Y520700D02*
G54D12*
D03*
X114300Y520700D02*
G54D12*
D03*
X88900Y520700D02*
G54D12*
D03*
X63500Y520700D02*
G54D12*
D03*
X38100Y520700D02*
G54D12*
D03*
X12700Y520700D02*
G54D12*
D03*
G54D11*
X12700Y520700D02*
X12700Y546100D01*
G54D11*
X38100Y520700D02*
X38100Y546100D01*
G54D11*
X63500Y520700D02*
X63500Y546100D01*
G54D11*
X88900Y520700D02*
X88900Y546100D01*
G54D11*
X114300Y520700D02*
X114300Y546100D01*
G54D11*
X152400Y520700D02*
X152400Y546100D01*
X533400Y546100D02*
G54D12*
D03*
X558800Y546100D02*
G54D12*
D03*
X584200Y546100D02*
G54D12*
D03*
X609600Y546100D02*
G54D12*
D03*
X609600Y520700D02*
G54D12*
D03*
X584200Y520700D02*
G54D12*
D03*
X558800Y520700D02*
G54D12*
D03*
X533400Y520700D02*
G54D12*
D03*
G54D11*
X533400Y520700D02*
X533400Y546100D01*
G54D11*
X558800Y520700D02*
X558800Y546100D01*
G54D11*
X584200Y520700D02*
X584200Y546100D01*
G54D11*
X609600Y520700D02*
X609600Y546100D01*
X546100Y965200D02*
G54D12*
D03*
X571500Y965200D02*
G54D12*
D03*
X596900Y965200D02*
G54D12*
D03*
X635000Y965200D02*
G54D12*
D03*
X546100Y990600D02*
G54D12*
D03*
X571500Y990600D02*
G54D12*
D03*
X596900Y990600D02*
G54D12*
D03*
X622300Y990600D02*
G54D12*
D03*
G54D11*
X546100Y965200D02*
X546100Y990600D01*
G54D11*
X571500Y965200D02*
X571500Y990600D01*
G54D11*
X596900Y965200D02*
X596900Y990600D01*
G54D11*
X635000Y965200D02*
X622300Y977900D01*
X622300Y990600D01*
X38100Y876300D02*
G54D12*
D03*
X63500Y876300D02*
G54D12*
D03*
G54D11*
X25400Y850900D02*
X12700Y850900D01*
X25400Y850900D01*
X38100Y863600D01*
X38100Y876300D01*
G54D11*
X12700Y825500D02*
X50800Y825500D01*
X50800Y838200D01*
X63500Y850900D01*
X63500Y876300D01*
X38100Y965200D02*
G54D12*
D03*
X38100Y990600D02*
G54D12*
D03*
X63500Y990600D02*
G54D12*
D03*
G54D11*
X38100Y965200D02*
X38100Y990600D01*
G54D11*
X12700Y622300D02*
X12700Y647700D01*
G54D11*
X38100Y622300D02*
X38100Y660400D01*
X25400Y660400D01*
X12700Y673100D01*
X12700Y622300D02*
G54D12*
D03*
X38100Y622300D02*
G54D12*
D03*
X63500Y622300D02*
G54D12*
D03*
X88900Y622300D02*
G54D12*
D03*
X114300Y622300D02*
G54D12*
D03*
X152400Y622300D02*
G54D12*
D03*
X101600Y876300D02*
G54D12*
D03*
G54D11*
X63500Y622300D02*
X63500Y660400D01*
X25400Y698500D01*
X12700Y698500D01*
G54D11*
X88900Y622300D02*
X88900Y660400D01*
X25400Y723900D01*
X12700Y723900D01*
G54D11*
X12700Y749300D02*
X38100Y749300D01*
X38100Y736600D01*
X101600Y673100D01*
X101600Y647700D01*
X114300Y635000D01*
X114300Y622300D01*
G54D11*
X12700Y774700D02*
X38100Y774700D01*
X38100Y762000D01*
X50800Y749300D01*
X50800Y736600D01*
X127000Y685800D01*
X127000Y622300D01*
X152400Y622300D01*
G54D11*
X12700Y800100D02*
X50800Y800100D01*
X101600Y850900D01*
X101600Y876300D01*
X152400Y546100D02*
G54D12*
D03*
X152400Y520700D02*
G54D12*
D03*
X63500Y965200D02*
G54D12*
D03*
X101600Y990600D02*
G54D12*
D03*
X101600Y965200D02*
G54D12*
D03*
G54D11*
X63500Y965200D02*
X63500Y990600D01*
G54D11*
X101600Y965200D02*
X101600Y990600D01*
X533400Y635000D02*
G54D12*
D03*
X558800Y635000D02*
G54D12*
D03*
X584200Y635000D02*
G54D12*
D03*
X609600Y635000D02*
G54D12*
D03*
M02*
